<svg xmlns="http://www.w3.org/2000/svg" xmlns:xlink="http://www.w3.org/1999/xlink" width="500" zoomAndPan="magnify" viewBox="0 0 375 374.999991" height="500" preserveAspectRatio="xMidYMid meet" version="1.0"><defs><clipPath id="df77849dd6"><path d="M 110.386719 58.558594 L 322.496094 58.558594 L 322.496094 321 L 110.386719 321 Z M 110.386719 58.558594 " clip-rule="nonzero"/></clipPath><clipPath id="81c48a1911"><path d="M 322.496094 189.535156 L 110.785156 320.515625 L 110.785156 58.558594 L 322.496094 189.535156 " clip-rule="nonzero"/></clipPath><clipPath id="3fef84431e"><path d="M 53.527344 58.558594 L 168 58.558594 L 168 326 L 53.527344 326 Z M 53.527344 58.558594 " clip-rule="nonzero"/></clipPath><clipPath id="7ccac2c780"><path d="M 110.792969 58.558594 C 79.164062 58.558594 53.527344 118.417969 53.527344 192.253906 C 53.527344 266.09375 79.164062 325.949219 110.792969 325.949219 C 142.421875 325.949219 168.0625 266.09375 168.0625 192.253906 C 168.0625 118.417969 142.421875 58.558594 110.792969 58.558594 " clip-rule="nonzero"/></clipPath><clipPath id="d5d9d4aac9"><path d="M 19 23 L 130 23 L 130 356 L 19 356 Z M 19 23 " clip-rule="nonzero"/></clipPath><clipPath id="5360dd85f0"><path d="M -46.632812 278.832031 L 87.449219 11.300781 L 251.050781 93.292969 L 116.96875 360.824219 Z M -46.632812 278.832031 " clip-rule="nonzero"/></clipPath><clipPath id="85d5013c21"><path d="M -46.632812 278.832031 L 87.449219 11.300781 L 251.050781 93.292969 L 116.96875 360.824219 Z M -46.632812 278.832031 " clip-rule="nonzero"/></clipPath></defs><g clip-path="url(#df77849dd6)"><g clip-path="url(#81c48a1911)"><path fill="#41b883" d="M 322.496094 58.558594 L 322.496094 320.472656 L 110.972656 320.472656 L 110.972656 58.558594 Z M 322.496094 58.558594 " fill-opacity="1" fill-rule="nonzero"/></g></g><g clip-path="url(#3fef84431e)"><g clip-path="url(#7ccac2c780)"><path fill="#41b883" d="M 53.527344 58.558594 L 167.785156 58.558594 L 167.785156 325.746094 L 53.527344 325.746094 Z M 53.527344 58.558594 " fill-opacity="1" fill-rule="nonzero"/></g></g><g clip-path="url(#d5d9d4aac9)"><g clip-path="url(#5360dd85f0)"><g clip-path="url(#85d5013c21)"><path fill="#004aad" d="M 74.414062 272.515625 C 73.246094 270.601562 71.972656 268.375 70.808594 266.464844 C 69.640625 264.023438 68.582031 261.371094 67.414062 258.929688 L 67.414062 258.398438 C 66.25 255.425781 64.871094 252.351562 63.492188 248.742188 C 62.328125 245.769531 60.949219 242.164062 59.996094 238.769531 C 58.9375 235.585938 58.195312 232.296875 57.5625 229.324219 L 56.714844 225.71875 C 56.394531 224.234375 55.972656 222.429688 55.867188 220.519531 C 55.65625 218.824219 55.445312 216.59375 55.234375 214.367188 C 55.234375 213.308594 55.128906 212.460938 55.128906 211.398438 C 55.128906 210.335938 55.128906 209.277344 54.917969 208.109375 C 54.707031 205.882812 54.707031 203.761719 54.605469 201.851562 C 54.816406 197.714844 55.140625 193.367188 55.566406 189.339844 C 55.992188 186.371094 56.417969 183.402344 56.949219 180.75 C 57.375 178.84375 57.695312 177.144531 57.90625 175.128906 C 58.121094 174.175781 58.226562 173.433594 58.226562 172.375 C 58.441406 170.890625 58.652344 169.40625 58.867188 167.921875 C 59.292969 166.011719 59.71875 164.101562 60.035156 162.40625 L 60.25 160.921875 L 60.460938 159.4375 C 60.886719 157.53125 61.3125 155.621094 61.84375 153.5 C 62.164062 151.804688 62.800781 150.003906 63.332031 148.410156 L 63.441406 148.199219 C 64.183594 146.1875 64.929688 143.640625 65.777344 141.414062 C 66.203125 140.566406 66.523438 139.402344 66.945312 138.554688 C 67.476562 137.492188 67.902344 136.117188 68.433594 135.054688 C 70.027344 130.816406 72.046875 126.257812 74.597656 121.171875 L 75.023438 120.324219 C 76.933594 116.507812 78.953125 112.480469 81.289062 108.347656 C 81.925781 107.074219 82.777344 105.910156 83.414062 104.636719 C 83.839844 103.789062 84.371094 103.261719 84.792969 102.414062 L 85.21875 101.566406 C 85.964844 100.082031 86.8125 98.914062 87.554688 97.433594 C 88.40625 96.265625 89.363281 94.890625 90.210938 93.722656 C 90.847656 92.980469 91.378906 91.921875 92.015625 91.179688 C 92.761719 90.226562 93.292969 89.167969 93.929688 88.425781 C 94.777344 87.261719 95.414062 85.988281 96.265625 84.824219 C 97.433594 83.019531 98.8125 81.328125 100.195312 79.632812 L 101.46875 78.148438 L 102.210938 77.195312 C 103.699219 75.289062 105.292969 73.167969 107.097656 71.15625 C 108.582031 69.25 110.28125 67.449219 112.195312 65.222656 C 113.46875 63.742188 114.847656 62.578125 116.015625 61.304688 C 116.546875 60.777344 117.078125 60.246094 117.609375 59.714844 C 119.519531 58.023438 121.324219 56.011719 123.023438 54.210938 C 124.085938 53.148438 125.042969 51.773438 126.105469 50.714844 L 126.742188 49.972656 C 127.164062 49.65625 127.378906 49.230469 127.589844 48.804688 C 128.757812 46.476562 128.230469 43.292969 126.535156 41.382812 C 126.320312 40.746094 125.898438 40 125.367188 39.46875 C 123.671875 37.558594 121.761719 35.542969 119.640625 33.417969 C 118.789062 32.460938 117.941406 31.507812 117.199219 30.867188 L 116.5625 30.019531 C 115.925781 29.171875 115.183594 28.53125 114.441406 27.894531 C 113.699219 27.257812 113.0625 26.410156 112.214844 25.453125 C 110.730469 23.648438 108.078125 23.113281 105.53125 23.957031 L 104.363281 24.167969 C 103.195312 24.378906 102.34375 25.015625 101.390625 25.863281 L 100.648438 26.285156 C 99.691406 27.132812 98.523438 27.875 97.566406 28.71875 C 96.613281 29.566406 95.550781 30.625 94.703125 31.261719 C 94.0625 32.003906 93.109375 32.851562 92.257812 33.484375 L 91.199219 34.542969 C 90.242188 35.390625 89.5 36.34375 88.859375 37.085938 C 88.4375 37.40625 88.222656 37.828125 87.800781 38.144531 C 86.632812 39.417969 85.464844 40.6875 84.296875 41.960938 C 82.703125 43.546875 81.003906 45.347656 79.625 47.042969 C 78.347656 48.527344 77.074219 50.011719 75.800781 51.492188 C 74.3125 53.398438 72.613281 55.199219 70.914062 57 C 67.625 60.390625 65.074219 64.417969 62.421875 68.125 L 61.570312 69.289062 C 60.828125 70.246094 60.191406 71.515625 59.445312 72.46875 C 57.640625 75.011719 55.730469 77.765625 54.03125 80.628906 L 53.710938 81.265625 C 51.800781 84.550781 49.570312 87.941406 47.867188 91.332031 C 47.335938 92.390625 46.699219 93.664062 46.167969 94.722656 C 45.105469 96.84375 43.9375 99.175781 42.664062 101.1875 L 42.027344 102.460938 C 41.390625 103.730469 40.539062 104.898438 39.902344 106.167969 C 39.796875 106.382812 39.796875 106.382812 39.6875 106.59375 C 38.839844 108.289062 37.882812 110.195312 37.035156 112.421875 C 35.4375 116.132812 34.164062 119.734375 32.570312 123.445312 L 32.039062 125.035156 C 30.871094 127.898438 29.914062 130.335938 29.167969 132.878906 C 28.742188 134.789062 28.105469 136.589844 27.574219 138.710938 L 27.574219 140.300781 C 27.253906 141.46875 27.042969 142.421875 26.722656 143.589844 C 25.660156 147.300781 24.703125 151.328125 23.851562 155.144531 C 23.105469 159.28125 22.363281 163.414062 21.617188 167.550781 C 21.511719 168.292969 21.507812 168.824219 21.402344 169.566406 C 19.914062 179.425781 19.164062 187.273438 19.160156 194.699219 C 18.945312 199.363281 19.15625 203.714844 19.472656 207.847656 C 19.472656 208.910156 19.683594 210.078125 19.683594 211.136719 C 19.683594 212.199219 19.789062 213.046875 19.789062 214.105469 C 20 216.335938 20.316406 218.351562 20.421875 220.257812 L 20.527344 221.109375 L 20.421875 220.257812 C 20.738281 223.335938 21.375 226.304688 21.796875 229.171875 C 22.113281 230.65625 22.433594 232.140625 22.539062 233.519531 C 23.277344 237.867188 24.230469 242.324219 25.5 247.203125 C 26.5625 251.449219 28.152344 255.691406 29.953125 260.574219 C 31.011719 263.757812 32.707031 267.789062 34.296875 272.035156 C 35.570312 275.324219 37.265625 278.828125 39.386719 283.070312 C 40.550781 285.511719 41.824219 287.742188 43.097656 289.96875 L 44.898438 292.199219 L 45.324219 292.941406 C 45.960938 294.324219 46.914062 295.597656 47.550781 296.976562 C 48.398438 298.460938 49.566406 299.84375 50.414062 301.328125 L 50.945312 301.859375 L 51.6875 303.027344 C 52.746094 304.621094 54.019531 306.316406 55.292969 308.015625 C 55.398438 308.335938 55.609375 308.441406 55.929688 308.867188 C 56.5625 309.714844 56.988281 310.457031 57.730469 311.09375 L 57.941406 311.203125 C 58.792969 312.15625 59.535156 313.324219 60.277344 314.492188 C 61.972656 316.933594 63.5625 319.058594 65.578125 321.394531 C 66.957031 322.878906 68.441406 324.15625 69.609375 325.535156 C 70.882812 326.703125 71.941406 327.765625 73.109375 329.148438 C 74.808594 331.058594 76.929688 332.652344 78.730469 334.351562 L 79.472656 334.988281 C 80.429688 335.730469 81.066406 336.582031 82.019531 337.324219 C 83.609375 338.917969 85.519531 340.40625 87.429688 341.894531 C 88.066406 342.210938 88.386719 342.636719 89.019531 342.957031 C 89.445312 343.167969 89.765625 343.59375 90.1875 343.804688 L 90.507812 344.230469 C 91.035156 344.761719 91.671875 345.082031 91.992188 345.503906 C 94.429688 347.523438 97.191406 349.4375 99.949219 351.347656 C 101.113281 352.199219 102.386719 352.835938 103.660156 353.476562 C 104.085938 353.6875 104.511719 353.902344 104.933594 354.113281 L 105.359375 354.328125 C 105.570312 354.433594 105.78125 354.539062 106.207031 354.75 C 107.480469 355.390625 108.648438 355.710938 110.132812 355.921875 C 110.875 356.03125 111.726562 355.925781 112.46875 355.503906 C 112.785156 355.398438 113 355.503906 113.105469 355.292969 C 113.742188 355.082031 114.167969 354.761719 114.804688 354.550781 C 115.867188 354.023438 116.503906 353.28125 117.035156 352.222656 C 117.246094 351.796875 117.671875 351.480469 118.09375 351.164062 C 118.625 350.632812 119.050781 350.316406 119.371094 349.679688 C 120.21875 348.515625 121.28125 347.453125 122.128906 346.289062 L 122.769531 345.546875 C 123.296875 345.019531 123.9375 344.277344 124.253906 343.640625 C 124.46875 343.214844 124.785156 343.109375 124.996094 342.6875 L 125.210938 342.261719 L 125.421875 341.839844 L 125.636719 341.414062 C 125.742188 341.203125 126.167969 340.886719 126.273438 340.671875 C 127.015625 339.71875 127.863281 339.085938 128.394531 338.023438 C 129.246094 336.328125 129.566406 334.632812 129.035156 333.042969 C 128.613281 331.769531 128.082031 330.707031 126.914062 329.855469 C 126.597656 329.433594 126.277344 329.007812 125.855469 328.792969 C 124.476562 327.839844 123.308594 326.988281 121.929688 326.03125 C 121.292969 325.710938 120.761719 325.183594 119.914062 324.757812 C 118.003906 323.269531 116.09375 321.78125 113.867188 319.871094 C 112.0625 318.171875 109.941406 316.578125 107.183594 314.132812 C 104.957031 312.222656 102.835938 310.097656 100.925781 308.078125 C 100.394531 307.546875 100.078125 307.125 99.546875 306.59375 L 97.53125 304.257812 C 95.515625 301.921875 93.5 299.585938 91.273438 297.140625 C 89.894531 295.65625 88.621094 293.957031 87.347656 292.257812 C 86.078125 290.558594 84.910156 288.648438 83.636719 286.949219 L 83.214844 286.207031 C 81.09375 283.023438 78.652344 279.414062 76.640625 276.015625 C 76.214844 275.273438 75.261719 274 74.414062 272.515625 Z M 74.414062 272.515625 " fill-opacity="1" fill-rule="nonzero"/></g></g></g><path stroke-linecap="round" transform="matrix(0.630422, -0.408029, 0.407515, 0.629628, 89.055591, 331.954051)" fill="none" stroke-linejoin="miter" d="M 25.001211 24.997857 L 371.499179 25.001432 " stroke="#004aad" stroke-width="50" stroke-opacity="1" stroke-miterlimit="4"/><path stroke-linecap="round" transform="matrix(0.622252, 0.417392, -0.417795, 0.622854, 107.450717, 15.860998)" fill="none" stroke-linejoin="miter" d="M 25.000442 24.99978 L 379.403315 25.001217 " stroke="#004aad" stroke-width="50" stroke-opacity="1" stroke-miterlimit="4"/></svg>