<svg version="1.1" xmlns="http://www.w3.org/2000/svg" viewBox="0 0 62 62">
<style>.st0{fill:#003DA5;}</style>
<path class="st0" d="M31,61.9C13.9,61.9,0,48.1,0,31S13.8,0,30.9,0s31,13.8,31,30.9c0,0,0,0,0,0.1C61.9,48,48.1,61.9,31,61.9
   M31,1.5C14.7,1.4,1.5,14.6,1.5,30.9s13.1,29.5,29.4,29.5c16.3,0,29.5-13.1,29.5-29.4c0,0,0,0,0-0.1C60.4,14.7,47.3,1.5,31,1.5
   M57.2,39.8c0,0-0.1,0.1-0.2,0s-0.1-0.1-0.1-0.1c0.6-2.1,1-4.4,1-6.6c0-3.8-1.5-6.1-3.5-6.1c-1.1,0-2,0.8-2.1,1.9c0,0.1,0,0.1,0,0.2
   c0,2.3,2.8,2.5,2.8,7.5c0,2.1-0.4,4.2-1.1,6.2C50.9,53.6,40.8,58.5,31,58.5c-3,0.1-5.9-0.4-8.7-1.4c0-0.1,0-0.1,0-0.2
   c0,0,0.1-0.1,0.1-0.1c2.1,0.7,4.4,1,6.6,1c3.8,0,6-1.5,6-3.4c0-1.2-0.9-2.1-2.1-2.1c0,0,0,0,0,0c-2.3,0-2.5,2.9-7.5,2.9
   c-2.2,0-4.3-0.4-6.4-1.1C8.4,50.9,3.3,40.9,3.3,30.9c0-3,0.5-5.9,1.4-8.7c0,0,0.1,0,0.2,0c0,0,0.1,0.1,0.1,0.1c-0.7,2.1-1,4.4-1,6.6
   c0,3.8,1.5,6,3.5,6c1.1,0,2-0.8,2-1.9c0,0,0-0.1,0-0.1c0-2.3-2.8-2.6-2.8-7.5c0-2.1,0.4-4.3,1.1-6.3C11.1,8.4,21.1,3.4,31,3.3
   c3,0,5.9,0.5,8.7,1.5c0,0,0,0.1,0,0.2C39.7,5,39.7,5,39.6,5c-2.1-0.8-4.4-1.1-6.6-1.1c-3.7,0-6,1.5-6,3.5c0,1.1,0.8,2,1.9,2.1
   c0.1,0,0.1,0,0.2,0c2.3,0,2.5-2.8,7.5-2.8c2.1,0,4.2,0.4,6.2,1.1c10.7,3.3,15.6,13.4,15.7,23.1C58.6,33.9,58.1,36.9,57.2,39.8
   M42.4,32.4c-2.7-0.1-5,2-5.1,4.7c0,0,0,0,0,0c0,2.2,1.3,3.9,3,3.9c0.6,0.1,1.1-0.4,1.2-1c0,0,0-0.1,0-0.1c0-1.1-1.5-1.4-1.4-3
   c0.1-1.1,1-1.9,2.1-1.9c2.1,0,3,2,3,4c0.1,2.9-2.2,5.3-5.2,5.4c0,0,0,0,0,0c-3.6,0-5.9-3.4-5.9-7.1c0-5.5,3.6-7.6,5.5-8.1
   c0,0,4.9,0.9,4.8-1.3c-0.1-1-1.5-1.3-2.5-1.4c-0.8,0-1.5,0.1-2.3,0.4c-0.6-0.4-1.1-0.9-1.3-1.6c3.5-2.7,6-5.2,6-8.1
   c0.1-1.5-1.1-2.9-2.7-2.9c-0.1,0-0.2,0-0.3,0c-3.5,0-6.2,4.5-6.2,8.5c0,0.7,0,1.3,0.2,2c-2.2,1.6-4.5,3.1-6.9,4.4
   c0-0.9,0.1-1.7,0.3-2.6c1-1.1,2.4-2.8,2.4-4.1c0.1-0.5-0.3-1-0.9-1.1c0,0-0.1,0-0.1,0c-1.7,0-3,2.6-3.3,4.4
   c-0.9,1.1-2.2,1.9-3.6,2.1c-0.7,0-1.3-0.6-1.5-1.3c3.3-1.1,7.3-5.6,7.3-9.6c0.1-1.4-1-2.7-2.4-2.8c-0.2,0-0.3,0-0.5,0
   c-3.9,0-7.1,5.7-7.1,10.2c-1.4,0-1.9-1.5-1.9-2.6c0.1-0.9,0.2-1.7,0.4-2.6c0-0.4-0.2-0.7-0.6-0.8c0,0-0.1,0-0.1,0
   c-1.3,0-2.1,1.7-2.1,3.7c-0.1,2.5,1.8,4.5,4.3,4.6c0.4,1.7,1.8,3,3.6,3.1c1.2,0,2.5-0.4,3.4-1.2c-0.1,0.6-0.2,1.1-0.3,1.6
   c-3.8,2-6.5,3.3-9,5.6c-1.8,1.5-2.9,3.7-3.1,6.1c-0.2,2.6,1.8,4.8,4.4,5c0.2,0,0.4,0,0.6,0c4,0,7-3.2,8.4-7.5
   c0.7-2.5,1.1-5.2,1.1-7.8c2.7-1.5,5.3-3.2,7.9-5c0.2,0.4,0.5,0.7,0.9,1c-3.8,1.8-6.2,5.7-6.1,9.9c0,4.5,3,9.4,8.9,9.4
   c4.4,0,8.1-3.5,8.2-7.9C48.1,35.7,46.1,32.4,42.4,32.4 M18.8,44.4c-1.1,0.1-2.1-0.7-2.1-1.9c0-0.1,0-0.2,0-0.3c0-3.7,5.1-7.2,9-9.1
   C25,38.3,23.3,44.2,18.8,44.4 M21.7,24.2c0-2.8,2.8-8.2,4.5-7.6C28.2,17.2,24.5,22.6,21.7,24.2 M37.9,22.9c0-3.5,2.4-6.9,3.7-6.3
   C43,17.3,40.5,20.6,37.9,22.9"/>
</svg>
