<svg width="81" height="50" viewBox="0 0 81 50" fill="none" xmlns="http://www.w3.org/2000/svg"><path fill-rule="evenodd" clip-rule="evenodd" d="M64.3361 42.3886C64.3279 42.3951 64.3197 42.4011 64.3115 42.4077L64.0939 42.1469C59.609 45.8357 53.9121 47.8309 48.0332 47.8309C41.3058 47.8309 35.0027 45.2914 30.2756 40.635C25.5485 36.0397 22.942 29.8719 22.942 23.3409C22.942 18.3223 24.4574 13.4243 27.4269 9.31223C30.3363 5.26073 34.3363 2.23738 39.0634 0.483802L38.8819 0C34.0936 1.81412 29.9728 4.89802 27.0634 9.01006C24.0332 13.2426 22.397 18.2012 22.397 23.3409C22.397 29.9924 25.0636 36.2813 29.9121 40.9977C30.368 41.4417 30.8425 41.8601 31.3252 42.2659L30.6998 42.9935C35.4876 47.045 41.6694 49.2823 48.0332 49.2823C54.2757 49.2823 60.2754 47.1055 65.0637 43.2356L64.3361 42.3886Z" fill="#0033A0"></path><path fill-rule="evenodd" clip-rule="evenodd" d="M27.669 8.22347C27.5482 7.80021 27.4875 7.43749 27.4875 7.01424C27.4875 5.20011 28.6995 3.56708 30.8813 3.56708C31.3662 3.56708 31.7904 3.62762 32.1539 3.74871C32.5175 3.44654 32.9417 3.14382 33.3659 2.90219C32.6388 2.47893 31.7904 2.2373 30.8813 2.2373C28.2146 2.2373 25.9722 4.3536 25.9722 7.01424C25.9722 7.9213 26.2756 8.82836 26.6992 9.55379C26.8206 9.3727 26.942 9.19107 27.0628 9.06999C27.2448 8.76727 27.4875 8.46564 27.669 8.22347Z" fill="#0033A0"></path><path fill-rule="evenodd" clip-rule="evenodd" d="M34.2154 3.50684C33.7912 3.74846 33.4277 3.99064 33.0641 4.29281C33.8519 4.8977 34.2761 5.9253 34.2761 7.01399C34.2761 8.82811 32.9428 10.4001 30.8824 10.4001C29.7305 10.4001 28.8214 9.91626 28.2157 9.13028C28.0943 9.31191 27.973 9.433 27.8516 9.61408C27.6701 9.85626 27.4886 10.0979 27.3667 10.3395C28.2764 11.1866 29.4883 11.7309 30.8824 11.7309C33.6092 11.7309 35.7915 9.67463 35.7915 7.01399C35.7915 5.62313 35.1852 4.35335 34.2154 3.50684Z" fill="#0033A0"></path><path fill-rule="evenodd" clip-rule="evenodd" d="M25.5488 19.3503C25.5488 20.8017 24.7004 22.0715 23.4277 22.5553V23.3413V24.0067C25.4881 23.4624 27.0637 21.6483 27.0637 19.3503C27.0637 17.7178 26.1551 16.2664 24.8218 15.3594C24.6397 15.8432 24.5183 16.2664 24.3369 16.6897C25.1246 17.3551 25.5488 18.3227 25.5488 19.3503Z" fill="#0033A0"></path><path fill-rule="evenodd" clip-rule="evenodd" d="M22.4571 22.7968H22.1542C20.0938 22.7968 18.6993 21.2249 18.6993 19.3502C18.6993 17.5967 19.9118 15.9642 22.1542 15.9642C22.6391 15.9642 23.124 16.0242 23.487 16.2058C23.6089 15.782 23.7298 15.3593 23.9118 14.936C23.3662 14.7544 22.76 14.6333 22.1542 14.6333C19.4269 14.6333 17.2451 16.7501 17.2451 19.3502C17.2451 22.0714 19.4269 24.1272 22.1542 24.1272H22.4571C22.4571 23.8855 22.3964 23.5828 22.3964 23.3412C22.3964 23.1596 22.4571 22.9785 22.4571 22.7968Z" fill="#0033A0"></path><path fill-rule="evenodd" clip-rule="evenodd" d="M25.6699 28.4202C27.8516 28.4202 29.0636 30.0527 29.0636 31.8062C29.0636 33.3782 28.0944 34.769 26.579 35.1323C26.8212 35.5556 27.0639 35.9183 27.3061 36.3415C29.185 35.6766 30.579 33.9831 30.579 31.8062C30.579 29.2061 28.3365 27.0898 25.6699 27.0898C25.0035 27.0898 24.3365 27.2109 23.7915 27.4526C23.8516 27.8758 23.9123 28.3596 24.0337 28.7829C24.5186 28.5412 25.0636 28.4202 25.6699 28.4202Z" fill="#0033A0"></path><path fill-rule="evenodd" clip-rule="evenodd" d="M22.2751 31.8064C22.2751 30.8993 22.5785 30.0528 23.1842 29.3879C23.0628 28.9041 22.942 28.4203 22.8813 27.9365C21.6087 28.783 20.7603 30.2344 20.7603 31.8064C20.7603 34.5281 22.942 36.5833 25.6694 36.5833C25.8509 36.5833 26.0936 36.5833 26.2756 36.5233C26.0329 36.1001 25.7301 35.6768 25.4873 35.2536C23.5483 35.1325 22.2751 33.6811 22.2751 31.8064Z" fill="#0033A0"></path><path fill-rule="evenodd" clip-rule="evenodd" d="M49.4882 27.2715V32.7744C49.4882 34.0442 49.064 35.2534 47.4278 35.2534C45.7911 35.2534 45.3669 34.0442 45.3669 32.7744V27.2715H43.8521V33.0766C43.8521 35.0718 45.1247 36.5837 47.4278 36.5837C49.731 36.5837 51.0031 35.0718 51.0031 33.0766V27.2715H49.4882Z" fill="#0033A0"></path><path fill-rule="evenodd" clip-rule="evenodd" d="M50.6995 10.2798H54.8208V11.5495H49.1841V2.41895H50.6995V10.2798Z" fill="#0033A0"></path><path fill-rule="evenodd" clip-rule="evenodd" d="M0.0332031 14.8149H5.36655V16.1447H1.54803V18.3221H5.30586V19.6524H1.54803V22.6152H5.36655V23.9455H0.0332031V14.8149Z" fill="#0033A0"></path><path fill-rule="evenodd" clip-rule="evenodd" d="M30.1543 14.3311L36.4574 20.801V14.8149H37.9723V24.3082L31.6691 17.9593V23.9455H30.1543V14.3311Z" fill="#0033A0"></path><path fill-rule="evenodd" clip-rule="evenodd" d="M67.7305 14.8149H69.2458V23.9455H67.7305V14.8149Z" fill="#0033A0"></path><path fill-rule="evenodd" clip-rule="evenodd" d="M14.7604 28.6018V30.7786H18.0328V32.049H14.7604V36.4021H13.2456V27.2715H18.1547V28.6018H14.7604Z" fill="#0033A0"></path><path fill-rule="evenodd" clip-rule="evenodd" d="M20.8211 8.10293H20.8817L22.3359 2.41894H23.7911L21.2453 11.9128L18.033 5.07957L14.8213 11.9128L12.2153 2.41894H13.7302L15.1849 8.10293L18.033 2.2373L20.8211 8.10293Z" fill="#0033A0"></path><path fill-rule="evenodd" clip-rule="evenodd" d="M55.8514 18.2615H55.7907L54.336 23.9455H52.8818L55.4271 14.4521L58.6394 21.3454L61.8517 14.4521L64.4576 23.9455H62.9423L61.4876 18.2615H61.4269L58.6394 24.1876L55.8514 18.2615Z" fill="#0033A0"></path><path fill-rule="evenodd" clip-rule="evenodd" d="M56.639 30.7176L55.1843 36.4016H53.6694L56.2147 26.9077L59.4877 33.7409L62.6999 26.9077L65.2447 36.4016H63.7299L62.2752 30.7176L59.4877 36.5832L56.639 30.7176Z" fill="#0033A0"></path><path fill-rule="evenodd" clip-rule="evenodd" d="M36.2761 27.2715C37.1246 27.2715 38.0944 27.2715 38.8214 27.6947C39.6097 28.118 40.0941 29.0251 40.0941 29.8716C40.0941 31.2019 39.1855 32.2906 37.8516 32.4111L40.761 36.4021H39.0642L36.3368 32.5322H35.3063V36.4021H33.7915V27.2715H36.2761ZM35.3063 31.323H35.9733C37.1852 31.323 38.6399 31.383 38.6399 29.9321C38.6399 28.4807 37.1246 28.5413 35.9126 28.5413H35.3063V31.323Z" fill="#0033A0"></path><path fill-rule="evenodd" clip-rule="evenodd" d="M41.427 2.41895C42.2754 2.41895 43.2452 2.41895 43.9723 2.8422C44.7606 3.26546 45.1843 4.17252 45.1843 5.01904C45.1843 6.3499 44.3364 7.43805 42.9424 7.55859L45.9119 11.5495H44.215L41.427 7.67968H40.4572V11.5495H38.9424V2.41895H41.427ZM40.4572 6.47045H41.1242C42.3361 6.47045 43.7301 6.53099 43.7301 5.07958C43.7301 3.62818 42.2148 3.68927 41.0635 3.68927H40.4572V6.47045Z" fill="#0033A0"></path><path fill-rule="evenodd" clip-rule="evenodd" d="M59.0027 10.2798H59.8511C61.8514 10.2798 63.7298 9.5538 63.7298 6.9537C63.7298 4.29306 61.8514 3.68872 59.8511 3.68872H59.0027V10.2798ZM57.4873 2.41895H59.9719C62.8813 2.41895 65.2451 3.80926 65.2451 6.9537C65.2451 10.0981 62.942 11.5495 59.9719 11.5495H57.4873V2.41895Z" fill="#0033A0"></path><path fill-rule="evenodd" clip-rule="evenodd" d="M79.2456 22.3736C78.7607 22.6758 78.2152 22.7968 77.5488 22.7968C75.5485 22.7968 74.155 21.2849 74.155 19.4102C74.155 17.5967 75.367 15.9636 77.5488 15.9636C78.2152 15.9636 78.7607 16.0847 79.2456 16.3263L79.9727 15.2382C79.3063 14.8755 78.4579 14.6333 77.5488 14.6333C74.8821 14.6333 72.6396 16.7501 72.6396 19.4102C72.6396 22.0714 74.8821 24.1272 77.5488 24.1272C78.4579 24.1272 79.3063 23.9455 80.0334 23.5223L79.2456 22.3736Z" fill="#0033A0"></path><path fill-rule="evenodd" clip-rule="evenodd" d="M14.8212 22.3736C14.3363 22.6758 13.7907 22.7968 13.185 22.7968C11.124 22.7968 9.73003 21.2849 9.73003 19.4102C9.73003 17.5967 10.942 15.9636 13.185 15.9636C13.7907 15.9636 14.3363 16.0847 14.8212 16.3263L15.609 15.2382C14.8819 14.8755 14.0329 14.6333 13.185 14.6333C10.4577 14.6333 8.27588 16.7501 8.27588 19.4102C8.27588 22.0714 10.4577 24.1272 13.185 24.1272C14.0329 24.1272 14.8819 23.9455 15.609 23.5223L14.8212 22.3736Z" fill="#0033A0"></path><path fill-rule="evenodd" clip-rule="evenodd" d="M49.4269 19.4107C49.4269 17.5966 48.2149 15.9641 46.0331 15.9641C43.7907 15.9641 42.5782 17.5966 42.5782 19.4107C42.5782 21.2854 43.9722 22.7968 46.0331 22.7968C48.0329 22.7968 49.4269 21.2854 49.4269 19.4107ZM50.9423 19.4107C50.9423 22.0714 48.6993 24.1277 46.0331 24.1277C43.3058 24.1277 41.124 22.0714 41.124 19.4107C41.124 16.7501 43.3058 14.6338 46.0331 14.6338C48.6993 14.6338 50.9423 16.7501 50.9423 19.4107Z" fill="#0033A0"></path></svg>
